# xmcd
#
# Track frame offsets:
# 150
# 16827
# 36467
# 51767
# 67115
# 82190
# 95975
# 108075
# 125330
# 143347
# 158897
# 171402
#
# Disc length: 2535 seconds
#
#
# Revision: 0
# Processed by: cddbd v1.4PL0 Copyright (c) Steve Scherf et al.
# Submitted via: FreeRIP 2.52 
#
DISCID=a409e50c
DTITLE=Leandro and Leonardo - Você Ainda Vai Voltar
DYEAR=1990
DGENRE=Sertaneja
TTITLE0=Você Ainda Vai Voltar
TTITLE1=Talismã
TTITLE2=Coração Quer Te Encontrar
TTITLE3=Mais Uma Vez Sozinho (Marcas De Amor)
TTITLE4=Pense Em Mim
TTITLE5=Cadê Você
TTITLE6=Só Fazendo Amor
TTITLE7=Talvez Você Se Lembre
TTITLE8=O Cheiro Da Maçã
TTITLE9=P'ra Nunca Mais Dizer Adeus
TTITLE10=Ponto Fraco
TTITLE11=Desculpe, Mas Eu Vou Chorar
EXTD=
EXTT0=
EXTT1=
EXTT2=
EXTT3=
EXTT4=
EXTT5=
EXTT6=
EXTT7=
EXTT8=
EXTT9=
EXTT10=
EXTT11=
PLAYORDER=
